<svg fill="#315449" height="32" width="32" xmlns="http://www.w3.org/2000/svg" viewBox="0 0 303.374 303.374" xml:space="preserve"><path d="M268.291 177.313c-4.144 0-8.12.727-11.814 2.052l-17.319-27.524c10.331-10.171 16.751-24.302 16.751-39.91 0-30.899-25.138-56.037-56.037-56.037s-56.037 25.138-56.037 56.037c0 12.226 3.947 23.54 10.617 32.762l-33.742 33.954a31.205 31.205 0 0 0-14.907-3.771 31.194 31.194 0 0 0-14.736 3.684l-19.721-20.688c5.93-7.037 9.514-16.113 9.514-26.014 0-22.293-18.137-40.43-40.43-40.43S0 109.565 0 131.858s18.136 40.43 40.429 40.43a40.184 40.184 0 0 0 16.444-3.509l21.387 22.436a31.203 31.203 0 0 0-3.856 15.06c0 17.313 14.085 31.398 31.398 31.398s31.398-14.085 31.398-31.398a31.199 31.199 0 0 0-3.766-14.897l33.756-33.969c9.207 6.635 20.491 10.559 32.68 10.559a55.684 55.684 0 0 0 24.584-5.694l17.197 27.329c-5.258 6.136-8.446 14.097-8.446 22.793 0 19.345 15.739 35.084 35.084 35.084s35.083-15.739 35.083-35.084-15.736-35.083-35.081-35.083zm-106.457-65.382c0-20.974 17.063-38.037 38.037-38.037s38.037 17.063 38.037 38.037-17.063 38.037-38.037 38.037-38.037-17.064-38.037-38.037zm-56.032 107.742c-7.388 0-13.398-6.011-13.398-13.398s6.011-13.398 13.398-13.398 13.398 6.011 13.398 13.398-6.01 13.398-13.398 13.398zM18 131.858c0-12.368 10.062-22.43 22.429-22.43s22.43 10.062 22.43 22.43-10.062 22.43-22.43 22.43S18 144.226 18 131.858zm250.291 97.622c-9.42 0-17.084-7.664-17.084-17.084s7.664-17.084 17.084-17.084 17.083 7.664 17.083 17.084-7.664 17.084-17.083 17.084z"/></svg>